<mxfile host="app.diagrams.net" modified="2024-04-26T01:17:24.385Z" agent="Mozilla/5.0 (Windows NT 10.0; Win64; x64) AppleWebKit/537.36 (KHTML, like Gecko) Chrome/123.0.0.0 Safari/537.36" etag="Vb-Ml9pnXM6SaTOFkXKu" version="24.3.0" type="github">
  <diagram name="Página-1" id="9kMNWzOG0qoD_WVptcO0">
    <mxGraphModel dx="1843" dy="796" grid="1" gridSize="10" guides="1" tooltips="1" connect="1" arrows="1" fold="1" page="1" pageScale="1" pageWidth="827" pageHeight="1169" math="0" shadow="0">
      <root>
        <mxCell id="0" />
        <mxCell id="1" parent="0" />
        <mxCell id="Vvl6f1CP4TVj-qOPn6Si-1" style="edgeStyle=orthogonalEdgeStyle;rounded=0;orthogonalLoop=1;jettySize=auto;html=1;exitX=0.5;exitY=1;exitDx=0;exitDy=0;entryX=0.5;entryY=0;entryDx=0;entryDy=0;dashed=1;" edge="1" parent="1" source="Vvl6f1CP4TVj-qOPn6Si-2" target="Vvl6f1CP4TVj-qOPn6Si-6">
          <mxGeometry relative="1" as="geometry" />
        </mxCell>
        <mxCell id="Vvl6f1CP4TVj-qOPn6Si-2" value="Usuario" style="swimlane;fontStyle=0;align=center;verticalAlign=top;childLayout=stackLayout;horizontal=1;startSize=26;horizontalStack=0;resizeParent=1;resizeLast=0;collapsible=1;marginBottom=0;rounded=0;shadow=0;strokeWidth=1;" vertex="1" parent="1">
          <mxGeometry x="150" y="300" width="160" height="300" as="geometry">
            <mxRectangle x="340" y="380" width="170" height="26" as="alternateBounds" />
          </mxGeometry>
        </mxCell>
        <mxCell id="Vvl6f1CP4TVj-qOPn6Si-3" value="+ nome: string&#xa;+ foto:string&#xa;+ email: string&#xa;+ senha: string&#xa;+ telefone: string&#xa;+ sexo: string&#xa;+ endereco: string&#xa;+ cep: string&#xa;+ nascimento: date&#xa;+ pontuacao: int&#xa;+ tipo: string " style="text;align=left;verticalAlign=top;spacingLeft=4;spacingRight=4;overflow=hidden;rotatable=0;points=[[0,0.5],[1,0.5]];portConstraint=eastwest;" vertex="1" parent="Vvl6f1CP4TVj-qOPn6Si-2">
          <mxGeometry y="26" width="160" height="164" as="geometry" />
        </mxCell>
        <mxCell id="Vvl6f1CP4TVj-qOPn6Si-4" value="" style="line;html=1;strokeWidth=1;align=left;verticalAlign=middle;spacingTop=-1;spacingLeft=3;spacingRight=3;rotatable=0;labelPosition=right;points=[];portConstraint=eastwest;" vertex="1" parent="Vvl6f1CP4TVj-qOPn6Si-2">
          <mxGeometry y="190" width="160" height="8" as="geometry" />
        </mxCell>
        <mxCell id="Vvl6f1CP4TVj-qOPn6Si-5" value="+ criar(): &#xa;+ gravar():&#xa;+ deletar(): &#xa;+ validarSenha():&#xa;+ atualizarPontos():&#xa;+ editar():" style="text;align=left;verticalAlign=top;spacingLeft=4;spacingRight=4;overflow=hidden;rotatable=0;points=[[0,0.5],[1,0.5]];portConstraint=eastwest;" vertex="1" parent="Vvl6f1CP4TVj-qOPn6Si-2">
          <mxGeometry y="198" width="160" height="102" as="geometry" />
        </mxCell>
        <mxCell id="Vvl6f1CP4TVj-qOPn6Si-6" value="«DAO»&#xa;UsuarioDAO&#xa;" style="swimlane;fontStyle=0;align=center;verticalAlign=top;childLayout=stackLayout;horizontal=1;startSize=35;horizontalStack=0;resizeParent=1;resizeLast=0;collapsible=1;marginBottom=0;rounded=0;shadow=0;strokeWidth=1;" vertex="1" parent="1">
          <mxGeometry x="150" y="660" width="160" height="70" as="geometry">
            <mxRectangle x="340" y="380" width="170" height="26" as="alternateBounds" />
          </mxGeometry>
        </mxCell>
        <mxCell id="Vvl6f1CP4TVj-qOPn6Si-7" value="" style="line;html=1;strokeWidth=1;align=left;verticalAlign=middle;spacingTop=-1;spacingLeft=3;spacingRight=3;rotatable=0;labelPosition=right;points=[];portConstraint=eastwest;" vertex="1" parent="Vvl6f1CP4TVj-qOPn6Si-6">
          <mxGeometry y="35" width="160" height="8" as="geometry" />
        </mxCell>
        <mxCell id="Vvl6f1CP4TVj-qOPn6Si-8" value="+ editar():&#xa;" style="text;align=left;verticalAlign=top;spacingLeft=4;spacingRight=4;overflow=hidden;rotatable=0;points=[[0,0.5],[1,0.5]];portConstraint=eastwest;" vertex="1" parent="Vvl6f1CP4TVj-qOPn6Si-6">
          <mxGeometry y="43" width="160" height="27" as="geometry" />
        </mxCell>
        <mxCell id="Vvl6f1CP4TVj-qOPn6Si-9" style="edgeStyle=orthogonalEdgeStyle;rounded=0;orthogonalLoop=1;jettySize=auto;html=1;entryX=0.5;entryY=0;entryDx=0;entryDy=0;dashed=1;" edge="1" parent="1" source="Vvl6f1CP4TVj-qOPn6Si-10" target="Vvl6f1CP4TVj-qOPn6Si-12">
          <mxGeometry relative="1" as="geometry">
            <mxPoint x="300" y="135" as="targetPoint" />
          </mxGeometry>
        </mxCell>
        <mxCell id="Vvl6f1CP4TVj-qOPn6Si-10" value="«View»&lt;br&gt;&lt;b&gt;EditarUsuario&lt;br&gt;&lt;/b&gt;" style="html=1;whiteSpace=wrap;" vertex="1" parent="1">
          <mxGeometry x="162.5" y="70" width="135" height="50" as="geometry" />
        </mxCell>
        <mxCell id="Vvl6f1CP4TVj-qOPn6Si-11" style="edgeStyle=orthogonalEdgeStyle;rounded=0;orthogonalLoop=1;jettySize=auto;html=1;exitX=0.5;exitY=1;exitDx=0;exitDy=0;entryX=0.5;entryY=0;entryDx=0;entryDy=0;dashed=1;" edge="1" parent="1" source="Vvl6f1CP4TVj-qOPn6Si-12" target="Vvl6f1CP4TVj-qOPn6Si-2">
          <mxGeometry relative="1" as="geometry">
            <mxPoint x="272.5" y="160" as="sourcePoint" />
            <mxPoint x="230" y="330" as="targetPoint" />
          </mxGeometry>
        </mxCell>
        <mxCell id="Vvl6f1CP4TVj-qOPn6Si-12" value="«Control»&#xa;UsuarioCtr" style="swimlane;fontStyle=0;align=center;verticalAlign=top;childLayout=stackLayout;horizontal=1;startSize=40;horizontalStack=0;resizeParent=1;resizeLast=0;collapsible=1;marginBottom=0;rounded=0;shadow=0;strokeWidth=1;" vertex="1" parent="1">
          <mxGeometry x="150" y="160" width="160" height="80" as="geometry">
            <mxRectangle x="340" y="380" width="170" height="26" as="alternateBounds" />
          </mxGeometry>
        </mxCell>
        <mxCell id="Vvl6f1CP4TVj-qOPn6Si-13" value="" style="line;html=1;strokeWidth=1;align=left;verticalAlign=middle;spacingTop=-1;spacingLeft=3;spacingRight=3;rotatable=0;labelPosition=right;points=[];portConstraint=eastwest;" vertex="1" parent="Vvl6f1CP4TVj-qOPn6Si-12">
          <mxGeometry y="40" width="160" height="10" as="geometry" />
        </mxCell>
        <mxCell id="Vvl6f1CP4TVj-qOPn6Si-14" value="+ editar():&#xa;" style="text;align=left;verticalAlign=top;spacingLeft=4;spacingRight=4;overflow=hidden;rotatable=0;points=[[0,0.5],[1,0.5]];portConstraint=eastwest;" vertex="1" parent="Vvl6f1CP4TVj-qOPn6Si-12">
          <mxGeometry y="50" width="160" height="30" as="geometry" />
        </mxCell>
      </root>
    </mxGraphModel>
  </diagram>
</mxfile>
